<?xml version="1.0" encoding="UTF-8" standalone="no"?>
<!-- Created with Inkscape (http://www.inkscape.org/) -->

<svg
   xmlns:dc="http://purl.org/dc/elements/1.1/"
   xmlns:cc="http://creativecommons.org/ns#"
   xmlns:rdf="http://www.w3.org/1999/02/22-rdf-syntax-ns#"
   xmlns:svg="http://www.w3.org/2000/svg"
   xmlns="http://www.w3.org/2000/svg"
   xmlns:sodipodi="http://sodipodi.sourceforge.net/DTD/sodipodi-0.dtd"
   xmlns:inkscape="http://www.inkscape.org/namespaces/inkscape"
   id="svg2"
   version="1.1"
   inkscape:version="0.91 r13725"
   xml:space="preserve"
   width="492"
   height="600"
   viewBox="0 0 492 599.99997"
   sodipodi:docname="Logo Argenteuil.svg"><metadata
     id="metadata8"><rdf:RDF><cc:Work
         rdf:about=""><dc:format>image/svg+xml</dc:format><dc:type
           rdf:resource="http://purl.org/dc/dcmitype/StillImage" /><dc:title></dc:title></cc:Work></rdf:RDF></metadata><defs
     id="defs6" /><sodipodi:namedview
     pagecolor="#ffffff"
     bordercolor="#666666"
     borderopacity="1"
     objecttolerance="10"
     gridtolerance="10"
     guidetolerance="10"
     inkscape:pageopacity="0"
     inkscape:pageshadow="2"
     inkscape:window-width="1280"
     inkscape:window-height="691"
     id="namedview4"
     showgrid="false"
     inkscape:zoom="0.63429547"
     inkscape:cx="143.4474"
     inkscape:cy="313.34671"
     inkscape:window-x="0"
     inkscape:window-y="1"
     inkscape:window-maximized="1"
     inkscape:current-layer="g10" /><g
     id="g10"
     inkscape:groupmode="layer"
     inkscape:label="Logo Argenteuil"
     transform="matrix(1.25,0,0,-1.25,0,599.99995)"><g
       id="g5774"
       transform="matrix(8.2384199,0,0,8.2384199,-602.71374,-614.18248)"><g
         id="g5754"><path
           d="m 88.262,113.6161 7.224,-2.787 c 0.106,-0.053 1.154,-0.374 1.398,-2.042 l 0.015,-4.108 c -0.096,0.177 -0.415,0.749 -1.08,1.001 l -4.179,1.567 c -0.569,0.267 -0.189,1.562 -0.202,1.497 l 3.102,-1.146 c 0.215,-0.058 0.345,0.27 0.116,0.354 l -4.549,1.682 c -0.432,0.293 -0.632,0.839 -0.389,1.697 l 3.206,-1.189 c 0.252,-0.093 0.377,0.244 0.128,0.345 l -4.32,1.61 c -0.682,0.375 -0.633,1.5 -0.47,1.519 m 9.038,-4.823 c 0.244,1.669 1.292,1.989 1.398,2.043 l 7.224,2.786 c 0.163,-0.018 0.212,-1.144 -0.469,-1.518 l -4.321,-1.61 c -0.249,-0.102 -0.124,-0.438 0.128,-0.346 l 3.206,1.19 c 0.244,-0.859 0.044,-1.404 -0.389,-1.697 l -4.549,-1.683 c -0.229,-0.084 -0.098,-0.412 0.116,-0.354 l 3.101,1.146 c -0.012,0.065 0.368,-1.23 -0.2,-1.496 l -4.18,-1.568 c -0.665,-0.252 -0.984,-0.824 -1.08,-1.001 l 0.015,4.108 z m -8.742,2.971 0.812,-0.299 c 0,0 -0.512,-1.409 0.531,-2.146 l 1.181,-0.443 c 0,0 -0.467,-1.505 0.378,-1.953 l 4.237,-1.59 c 0.926,-0.422 1.222,-1.463 1.208,-2.273 -0.004,-0.093 0.057,-0.18 0.179,-0.19 0.032,0.001 0.062,0.011 0.088,0.026 0.073,0.031 0.11,0.099 0.108,0.171 -0.015,0.809 0.281,1.851 1.207,2.272 l 4.237,1.591 c 0.845,0.448 0.378,1.953 0.378,1.953 l 1.181,0.442 c 1.043,0.737 0.531,2.146 0.531,2.146 l 0.812,0.299 c 1.143,0.625 0.776,2.458 0.357,2.275 -0.095,-0.037 -7.427,-2.863 -7.427,-2.863 -0.085,-0.07 -0.967,-0.285 -1.465,-1.655 -0.499,1.364 -1.378,1.579 -1.463,1.649 0,0 -7.332,2.825 -7.427,2.862 -0.418,0.184 -0.786,-1.65 0.357,-2.274"
           style="fill:#2252ab;fill-opacity:1;fill-rule:nonzero;stroke:none"
           id="path140"
           inkscape:connector-curvature="0" /><path
           d="m 97.1278,116.2839 c 0.385,0 0.698,-0.312 0.698,-0.698 0,-0.384 -0.313,-0.698 -0.698,-0.698 -0.385,0 -0.699,0.314 -0.699,0.698 0,0.386 0.314,0.698 0.699,0.698 m 0,-1.454 c 0.418,0 0.756,0.338 0.756,0.756 0,0.417 -0.338,0.756 -0.756,0.756 -0.416,0 -0.756,-0.339 -0.756,-0.756 0,-0.418 0.34,-0.756 0.756,-0.756"
           style="fill:#2252ab;fill-opacity:1;fill-rule:nonzero;stroke:none"
           id="path142"
           inkscape:connector-curvature="0" /><path
           d="m 94.062,116.6499 c 0.133,-0.047 1.284,-0.44 2.042,-0.701 -0.042,-0.113 -0.067,-0.235 -0.067,-0.363 0,-0.127 0.025,-0.246 0.065,-0.361 -0.756,-0.26 -1.907,-0.653 -2.04,-0.698 l 0,2.123 z m 2.232,-1.755 c -0.39,-0.387 -0.658,-0.658 -0.67,-0.67 -0.046,0.044 -0.485,0.485 -0.496,0.496 l 1.04,0.357 c 0.036,-0.065 0.078,-0.125 0.126,-0.183 m 0.832,1.619 c 0.515,0 0.932,-0.415 0.932,-0.928 0,-0.513 -0.417,-0.931 -0.932,-0.931 -0.511,0 -0.928,0.418 -0.928,0.931 0,0.513 0.417,0.928 0.928,0.928 m -1.062,2.134 2.121,0 c -0.045,-0.132 -0.438,-1.28 -0.696,-2.037 -0.115,0.041 -0.236,0.065 -0.363,0.065 -0.127,0 -0.249,-0.024 -0.366,-0.066 -0.257,0.756 -0.652,1.906 -0.696,2.038 m 3.057,-3.93 c -0.003,-0.002 -0.433,-0.436 -0.478,-0.481 -0.012,0.012 -0.282,0.283 -0.671,0.67 0.043,0.053 0.08,0.108 0.112,0.166 l 1.037,-0.355 z m -0.971,1.231 c 0.759,0.261 1.903,0.653 2.034,0.698 l 0,-2.122 c -0.131,0.046 -1.275,0.435 -2.034,0.695 0.043,0.114 0.07,0.237 0.07,0.366 0,0.128 -0.027,0.251 -0.07,0.363 m -0.16,-2.36 0.041,-0.125 -0.396,1.163 c 0.066,0.034 0.126,0.077 0.183,0.125 0.389,-0.389 0.658,-0.658 0.671,-0.669 -0.045,-0.048 -0.499,-0.494 -0.499,-0.494 m 0.192,-1.062 -2.12,0 c 0.043,0.13 0.437,1.278 0.696,2.036 0.116,-0.042 0.239,-0.067 0.368,-0.067 0.127,0 0.248,0.025 0.363,0.063 0.258,-0.757 0.649,-1.902 0.693,-2.032 m -2.711,1.545 c -0.046,-0.043 -0.927,-0.926 -0.927,-0.926 l 0.156,-0.155 c 0,0 0.881,0.879 0.927,0.928 0.045,-0.047 0.549,-0.55 0.549,-0.55 l 0.08,0.223 c 0,0 -0.432,0.435 -0.477,0.476 0.013,0.015 0.281,0.284 0.671,0.671 0.051,-0.038 0.103,-0.078 0.161,-0.109 l -0.774,-2.266 2.572,0 -0.341,0.997 c 0.002,0.007 0.527,0.522 0.571,0.567 0.047,-0.046 0.928,-0.925 0.928,-0.925 l 0.155,0.155 c 0,0 -0.88,0.881 -0.928,0.928 0.046,0.044 0.537,0.538 0.555,0.555 l 0.996,-0.343 0,2.573 -2.261,-0.772 c -0.031,0.058 -0.069,0.112 -0.112,0.164 0.844,0.844 1.61,1.611 1.61,1.611 l 0.06,0.223 -0.215,-0.068 c 0,0 -0.764,-0.766 -1.609,-1.609 -0.057,0.047 -0.116,0.089 -0.182,0.125 l 0.774,2.263 -2.571,0 0.774,-2.265 c -0.058,-0.033 -0.112,-0.071 -0.163,-0.111 -0.845,0.843 -1.61,1.608 -1.61,1.608 l -0.222,0.058 0.065,-0.213 c 0,0 0.767,-0.766 1.611,-1.608 -0.047,-0.057 -0.09,-0.115 -0.125,-0.178 l -2.269,0.774 0,-2.572 1.003,0.342 c 0.019,-0.019 0.525,-0.525 0.568,-0.571"
           style="fill:#2252ab;fill-opacity:1;fill-rule:nonzero;stroke:none"
           id="path144"
           inkscape:connector-curvature="0" /><path
           d="m 114.0516,129.287 0.645,-1.187 0.651,1.174 1.227,-0.333 -0.375,-1.264 -0.296,-0.012 0.429,-3.076 -1.601,-0.049 -1.663,0.043 0.423,3.082 -0.296,0.006 -0.355,1.26 1.211,0.356 z m 0.984,-0.159 -0.339,-0.626 -0.341,0.626 0.68,0 z m -1.77,-1.648 -0.423,-3.08 1.821,-0.061 1.884,0.062 -0.421,3.086 0.212,-0.015 0.464,1.611 -1.556,0.433 -0.104,-0.192 -0.894,0 -0.104,0.192 -1.553,-0.443 0.462,-1.593 0.212,0 z"
           style="fill:#2252ab;fill-opacity:1;fill-rule:nonzero;stroke:none"
           id="path146"
           inkscape:connector-curvature="0" /><path
           d="m 111.5848,88.9826 c -1.544,-0.314 -5.056,-1.965 -9.028,-0.886 -2.661,0.722 -5.015,1.731 -9.218,0.63 0.807,0.378 1.424,1.091 1.672,1.962 l 0,-0.008 c 2.603,0.568 4.044,0.003 6.906,-0.764 2.854,-0.765 4.755,-0.494 9.171,0.608 0,0 4.105,1.068 8.412,-0.669 l 0.001,-1.602 c -3.743,1.296 -6.813,0.953 -7.916,0.729 m -14.501,-0.542 c 0.003,0 0.005,0 0.008,0 -0.015,0 -0.02,0 -0.008,0 m -13.763,0.4 c -1.162,0.249 -4.54,0.949 -8.549,-0.634 l -0.001,1.541 c 7.509,2.686 10.515,-1.188 14.893,-0.245 0,0 -0.003,0.008 -0.009,0.02 0.571,-0.668 1.418,-1.093 2.366,-1.093 0.13,0 0.258,0.011 0.384,0.026 -0.004,-0.001 -0.007,-0.001 -0.01,-0.003 -4.925,-1.422 -4.89,-0.512 -9.074,0.388 m 27.574,9.621 c -1.305,-0.274 -4.964,-1.709 -8.847,-0.653 -2.458,0.668 -4.349,1.47 -8.261,0.555 l -0.001,-0.005 c -0.223,0.66 -0.661,1.221 -1.232,1.599 4.354,1.191 5.713,0.772 9.363,-0.206 2.854,-0.765 4.755,-0.494 9.171,0.607 0,0 4.103,1.068 8.409,-0.668 l 0.001,-1.835 c -4.035,1.509 -7.445,0.849 -8.603,0.606 m 0,-2.462 c -1.305,-0.274 -4.964,-1.708 -8.847,-0.653 -2.505,0.681 -4.423,1.5 -8.49,0.5 0.25,0.448 0.395,0.964 0.395,1.515 0,0.175 -0.018,0.345 -0.046,0.512 3.333,0.751 4.768,0.323 8.01,-0.547 2.854,-0.764 4.755,-0.493 9.171,0.608 0,0 4.103,1.068 8.41,-0.668 l 0,-1.874 c -4.034,1.51 -7.445,0.85 -8.603,0.607 m 0,-2.574 c -1.305,-0.274 -4.964,-1.709 -8.847,-0.653 -2.313,0.628 -4.124,1.375 -7.588,0.699 l 0.001,-0.004 c -0.507,0.642 -1.26,1.08 -2.119,1.168 0.279,0.154 0.53,0.35 0.748,0.579 3.936,1.012 5.331,0.588 8.827,-0.349 2.854,-0.765 4.755,-0.494 9.171,0.607 0,0 4.104,1.069 8.411,-0.668 l 0,-1.987 c -4.035,1.51 -7.446,0.851 -8.604,0.608 m -21.604,-1.884 c 0,1.507 1.222,2.729 2.73,2.729 1.507,0 2.729,-1.222 2.729,-2.729 0,-1.508 -1.222,-2.729 -2.729,-2.729 -1.508,0 -2.73,1.221 -2.73,2.729 m -2.952,-1.41 c 1.07,0 2.013,0.54 2.573,1.362 0.008,-0.571 0.172,-1.102 0.448,-1.559 -1.203,-0.197 -2.313,-0.037 -3.452,0.23 0.141,-0.019 0.284,-0.033 0.431,-0.033 m -11.569,2.093 c 0.308,0.063 1.864,0.688 3.539,0.877 0.571,-0.674 1.422,-1.103 2.375,-1.103 0.861,0 1.639,0.349 2.203,0.914 l -0.015,-0.02 0.39,-0.085 c 0.162,-1.155 0.955,-2.103 2.021,-2.488 -2.684,0.693 -5.662,1.718 -10.512,-0.065 l -10e-4,1.97 z m 3.406,19.194 0,-8.979 c -0.591,-0.486 -1.149,-1.056 -1.64,-1.759 -1.251,-0.354 -1.762,-0.564 -1.762,-0.564 l 0,-0.486 c 0.194,0.064 1.378,0.449 1.378,0.449 l 0.005,0.007 c -0.337,-0.579 -0.632,-1.239 -0.87,-2.001 0.008,-0.009 0.089,-0.079 0.208,-0.182 l -0.721,-0.229 0,-0.508 c 0.16,0.056 0.964,0.292 1.146,0.371 0.438,-0.377 0.941,-0.809 0.941,-0.809 0.07,0.398 0.181,0.773 0.319,1.126 0.968,0.23 1.949,0.292 2.791,0.282 -1.093,-0.257 -1.963,-1.088 -2.274,-2.16 -0.018,-0.002 -1.03,-0.127 -2.928,-0.778 l -0.006,16.22 3.413,0 z m 8.163,-15.446 c 1.507,0 2.729,-1.222 2.729,-2.73 0,-1.507 -1.222,-2.729 -2.729,-2.729 -1.507,0 -2.729,1.222 -2.729,2.729 0,1.508 1.222,2.73 2.729,2.73 m -2.907,0.596 c 0.464,-0.304 1.014,-0.485 1.605,-0.503 -0.502,-0.231 -0.932,-0.591 -1.246,-1.04 10e-4,0.028 0.004,0.056 0.004,0.085 0,0.527 -0.132,1.023 -0.363,1.458 m -1.148,1.353 c 0.031,-0.071 0.064,-0.14 0.1,-0.207 -0.167,0.108 -0.344,0.202 -0.53,0.277 0.218,-0.031 0.368,-0.058 0.43,-0.07 m -3.182,2.661 c 1.476,0.098 2.919,-0.154 3.162,-0.199 -0.157,-0.372 -0.244,-0.781 -0.244,-1.21 0,-0.253 0.033,-0.496 0.09,-0.731 -2.194,0.403 -4.332,0.033 -4.681,-0.033 0.451,0.889 1.074,1.615 1.673,2.173 m 2.938,0.352 c -1.554,0.172 -2.146,0.17 -2.331,0.168 0.711,0.561 1.271,0.847 1.271,0.847 l 1.06,-1.015 z m 3.091,1.349 c -0.49,0 -0.953,-0.116 -1.366,-0.318 -0.102,0.117 -1.088,1.073 -1.079,1.107 1.253,0.685 2.125,1.466 2.732,2.203 l -0.114,-3 c -0.058,0.003 -0.114,0.008 -0.173,0.008 m 2.605,-4.81 c -0.002,-0.038 -0.006,-0.074 -0.006,-0.112 0,-0.595 0.17,-1.148 0.459,-1.621 -0.494,0.366 -1.099,0.589 -1.756,0.609 0.533,0.246 0.984,0.636 1.303,1.124 m 0.125,1.699 c 0,-1.507 -1.222,-2.729 -2.73,-2.729 -1.507,0 -2.729,1.222 -2.729,2.729 0,1.508 1.222,2.73 2.729,2.73 1.508,0 2.73,-1.222 2.73,-2.73 m 1.529,0.94 c -0.468,-0.248 -0.865,-0.611 -1.153,-1.052 10e-4,0.038 0.006,0.075 0.006,0.113 0,0.488 -0.116,0.948 -0.316,1.359 0.432,-0.252 0.93,-0.403 1.463,-0.42 m 0.102,0.377 c -1.507,0 -2.729,1.222 -2.729,2.729 0,1.507 1.222,2.729 2.729,2.729 1.508,0 2.73,-1.222 2.73,-2.729 0,-1.507 -1.222,-2.729 -2.73,-2.729 m -7.528,10.929 -0.018,-6.597 c -1.072,-0.656 -2.27,-1.244 -3.383,-2.078 l 0,8.675 3.401,0 z m -7.172,0.283 0,0.532 11.65,0.007 -0.073,-0.532 -11.577,-0.007 z m 10.408,-2.233 c -0.246,-2.274 -1.403,-3.445 -2.867,-4.403 l 0.018,6.353 3.396,0 -0.153,-2.306 -0.394,0.356 z m -9.452,-11.222 c 2.47,6.556 7.997,4.754 9.746,10.44 l 0.854,-0.842 c 0,0 -0.435,-2.772 -4.288,-4.736 -0.008,-0.029 1.131,-1.133 1.337,-1.353 -0.322,-0.217 -0.601,-0.493 -0.823,-0.812 l -1.514,1.517 c 0,0 -3.835,-1.9 -4.423,-5.015 l -0.889,0.801 z m 2.207,-3.137 c 0,1.508 1.222,2.73 2.729,2.73 1.507,0 2.729,-1.222 2.729,-2.73 0,-1.507 -1.222,-2.729 -2.729,-2.729 -1.507,0 -2.729,1.222 -2.729,2.729 m -3.186,-0.394 0.002,-0.021 c 1.676,0.559 2.612,0.744 2.825,0.783 -0.014,-0.121 -0.024,-0.243 -0.024,-0.367 0,-0.596 0.171,-1.151 0.461,-1.624 -0.018,0.025 -0.033,0.046 -0.037,0.056 -0.568,0.015 -2.277,-0.492 -3.226,-0.822 l -0.001,1.995 z m 14.679,-1.425 c -0.009,0.577 -0.175,1.113 -0.456,1.573 0.436,-0.324 0.958,-0.539 1.528,-0.597 -0.43,-0.237 -0.797,-0.572 -1.072,-0.976 m 1.393,1.341 c -1.507,0 -2.729,1.222 -2.729,2.729 0,1.508 1.222,2.73 2.729,2.73 1.508,0 2.73,-1.222 2.73,-2.73 0,-1.507 -1.222,-2.729 -2.73,-2.729 m -4.049,23.87 c 2.646,2.46 6.543,3.968 10.229,3.968 8.362,0 15.164,-6.803 15.164,-15.164 0,-2.308 -0.52,-4.496 -1.445,-6.456 -0.304,-0.073 -0.705,-0.189 -1.182,-0.317 1.092,2.016 1.713,4.321 1.713,6.77 0,7.86 -6.394,14.255 -14.253,14.255 -3.865,0 -7.746,-1.725 -10.372,-4.483 0.05,0.507 0.098,0.984 0.146,1.427 m 3.184,6.868 c 1.312,0.509 2.672,0.875 4.057,1.092 0.085,-0.638 0.383,-2.899 0.383,-2.899 l 0.43,0.058 c 1.395,0.231 3.272,0.152 4.307,0.003 l 0.43,-0.057 0.056,0.43 c 0,0 0.239,1.834 0.323,2.472 1.388,-0.216 2.749,-0.579 4.058,-1.085 -0.245,-0.594 -1.117,-2.7 -1.117,-2.7 l 0.401,-0.165 c 1.319,-0.544 2.574,-1.269 3.729,-2.155 l 0.343,-0.263 c 0,0 1.39,1.811 1.781,2.321 1.089,-0.875 2.086,-1.871 2.972,-2.972 -0.51,-0.391 -2.321,-1.78 -2.321,-1.78 l 0.263,-0.344 c 0.86,-1.115 1.572,-2.339 2.119,-3.636 l 0.168,-0.398 c 0,0 2.101,0.884 2.695,1.133 0.514,-1.308 0.885,-2.666 1.107,-4.053 -0.636,-0.087 -2.894,-0.398 -2.894,-0.398 l 0.057,-0.427 c 0.192,-1.074 0.229,-3.44 0.026,-4.307 l -0.053,-0.427 c 0,0 2.26,-0.288 2.898,-0.369 -0.166,-1.107 -0.43,-2.194 -0.782,-3.253 -2.014,0.162 -3.59,-0.115 -4.381,-0.277 0.892,1.948 1.391,4.113 1.391,6.392 0,8.492 -6.908,15.401 -15.401,15.401 -3.697,0 -7.567,-1.46 -10.194,-3.874 0.063,0.582 0.123,1.102 0.178,1.56 1.21,0.901 2.594,1.724 3.692,2.113 l 0.399,0.166 c 0,0 -0.874,2.104 -1.12,2.698 m -4.273,0.295 c 0,0 -0.018,0.858 -0.322,1.67 0.322,1.129 0.789,1.507 0.789,1.507 0.053,-0.099 0.371,-0.701 0.379,-1.676 -0.447,-0.431 -0.846,-1.501 -0.846,-1.501 m 0.23,-0.453 c 0.272,0.973 0.745,1.496 0.798,1.596 0,0 0.411,-0.472 0.223,-2.158 -0.344,-0.176 -0.689,-0.665 -0.689,-0.665 0,0 0.036,0.574 -0.332,1.227 m -1.729,-0.157 c 0.258,1.474 0.879,1.982 0.879,1.982 0.052,-0.099 0.298,-0.709 0.265,-1.749 -0.386,-0.29 -0.693,-1.071 -0.693,-1.071 0,0 -0.112,0.459 -0.451,0.838 m -4.225,1.058 c -0.375,-0.391 -0.512,-1.189 -0.512,-1.189 0,0 -0.294,0.572 -0.593,0.778 0.077,1.644 0.553,2.111 0.553,2.111 0.052,-0.099 0.451,-0.753 0.552,-1.7 m 1.132,1.7 c 0,0 0.475,-0.467 0.552,-2.111 -0.298,-0.206 -0.592,-0.778 -0.592,-0.778 0,0 -0.137,0.798 -0.512,1.189 0.101,0.947 0.5,1.601 0.552,1.7 m -0.838,-1.281 c 0,0 -0.274,1.152 -0.589,1.575 0.262,1.125 0.607,1.582 0.607,1.582 0.052,-0.1 0.465,-0.631 0.566,-1.578 -0.367,-0.54 -0.584,-1.579 -0.584,-1.579 m -4.646,-2.696 0.241,0 c -0.048,1.302 0.504,2.071 0.623,2.079 0.191,-0.121 0.631,-0.943 0.566,-2.079 l 0.254,0 c 0.133,0.955 0.592,1.418 0.592,1.418 0,0 0.262,-0.403 0.278,-1.394 l -0.016,-11.339 0.04,0 0,-0.004 0.339,0 0.008,11.359 c 0,0.899 0.27,1.366 0.27,1.366 0,0 0.411,-0.366 0.6,-1.406 l 0.242,0 c -0.048,1.302 0.494,1.957 0.606,1.997 0.139,-0.074 0.616,-0.859 0.583,-1.997 l 0.254,0 c 0.133,0.955 0.592,1.418 0.592,1.418 0,0 0.262,-0.403 0.278,-1.394 l -0.016,-11.339 0.367,-0.004 0,0.003 0.033,-10e-4 c 0,0 0.558,7.253 1.219,10.648 0.249,1.277 0.535,1.428 0.535,1.428 0,0 0.25,-0.282 0.355,-1.466 l 0.199,-0.045 c 0.21,1.411 0.809,1.883 0.921,1.922 0.14,-0.073 0.482,-0.671 0.282,-2.094 l 0.254,-0.033 c 0.332,0.991 0.816,1.299 0.816,1.299 0,0 0.236,-0.399 0.018,-1.469 0,0 -0.792,-5.173 -1.118,-10.19 l 0.407,0 c 0.088,1.148 0.178,2.206 0.266,3.173 2.707,3.196 6.514,5.001 10.503,5.001 7.382,0 13.388,-6.007 13.388,-13.39 0,-2.578 -0.743,-5.004 -2.015,-7.057 -1.715,-0.377 -3.987,-0.653 -6.343,-0.013 -2.817,0.766 -4.892,1.705 -10.112,0.038 -0.31,0.117 -0.644,0.185 -0.992,0.197 0.987,0.521 1.66,1.557 1.66,2.751 0,1.718 -1.393,3.111 -3.112,3.111 -1.718,0 -3.111,-1.393 -3.111,-3.111 0,-0.488 0.116,-0.949 0.316,-1.36 -0.303,0.177 -0.638,0.304 -0.995,0.371 -0.008,0.587 0.095,2.667 0.145,3.619 0.82,1.214 0.94,2.185 0.94,2.185 l -0.776,0.702 0.149,2.683 0.409,0 0.118,1.098 -8.482,0 -3.443,0 -0.004,11.398 c 0.008,0.872 0.268,1.327 0.268,1.327 0,0 0.411,-0.366 0.601,-1.406 m 0.556,2.277 c -0.375,-0.391 -0.512,-1.189 -0.512,-1.189 0,0 -0.294,0.572 -0.592,0.778 0.076,1.644 0.552,2.111 0.552,2.111 0.052,-0.099 0.451,-0.753 0.552,-1.7 m 1.132,1.7 c 0,0 0.476,-0.467 0.552,-2.111 -0.298,-0.206 -0.592,-0.778 -0.592,-0.778 0,0 -0.137,0.798 -0.512,1.189 0.101,0.947 0.5,1.601 0.552,1.7 m -0.838,-1.281 c 0,0 -0.274,1.152 -0.588,1.575 0.183,1.179 0.576,1.737 0.576,1.737 0.052,-0.099 0.495,-0.786 0.596,-1.733 -0.366,-0.54 -0.584,-1.579 -0.584,-1.579 m 18.286,-33.521 c 2.748,0.495 4.204,0.071 7.154,-0.72 2.854,-0.765 4.755,-0.493 9.171,0.608 0,0 4.105,1.068 8.412,-0.669 l 0,-1.786 c -4.036,1.51 -7.447,0.851 -8.605,0.607 -1.305,-0.274 -4.964,-1.708 -8.847,-0.653 -2.161,0.588 -3.983,1.438 -6.933,0.818 0.011,0.107 0.017,0.216 0.017,0.326 0,0.531 -0.134,1.031 -0.369,1.469 m 24.724,38.81 0.01,-31.541 c -1.125,0.42 -2.201,0.673 -3.193,0.812 0.383,1.194 0.659,2.422 0.816,3.671 l 0.055,0.429 c 0,0 -2.318,0.294 -2.928,0.372 0.148,0.871 0.06,2.745 -0.022,3.669 0.609,0.083 2.925,0.402 2.925,0.402 l -0.059,0.428 c -0.241,1.752 -0.711,3.468 -1.396,5.101 l -0.167,0.4 c 0,0 -2.154,-0.906 -2.721,-1.145 -0.491,1.087 -1.092,2.12 -1.797,3.083 0.49,0.375 2.345,1.798 2.345,1.798 l -0.265,0.343 c -1.087,1.412 -2.346,2.67 -3.741,3.74 l -0.343,0.263 c 0,0 -1.424,-1.854 -1.799,-2.343 -1,0.729 -2.065,1.344 -3.178,1.838 0.235,0.568 1.127,2.725 1.127,2.725 l -0.401,0.166 c -1.634,0.673 -3.353,1.133 -5.108,1.365 l -0.429,0.058 -0.056,-0.43 c 0,0 -0.248,-1.89 -0.327,-2.501 -0.994,0.138 -2.731,0.132 -3.673,-0.003 -0.08,0.61 -0.386,2.927 -0.386,2.927 l -0.429,-0.058 c -1.751,-0.233 -3.469,-0.695 -5.107,-1.374 l -0.4,-0.165 c 0,0 0.896,-2.158 1.131,-2.726 -0.784,-0.29 -1.821,-0.879 -2.819,-1.568 0.072,0.548 0.128,0.918 0.159,1.098 0.235,1.106 -0.036,1.644 -0.036,1.644 0.09,0.719 0.332,1.989 -0.395,2.932 -0.005,0.115 0.066,1.33 -0.483,2.156 l -0.285,0.054 c -0.755,-0.776 -1.038,-1.936 -1.038,-1.936 0.021,0.01 -0.959,-0.42 -1.281,-2.708 -0.05,-0.044 -0.395,-0.403 -0.592,-1.543 -0.39,-2.248 -0.69,-5.51 -0.873,-7.847 0,1.983 -0.022,7.014 0,8.453 0.012,0.975 -0.294,1.531 -0.294,1.531 -0.029,0.488 -0.009,2.068 -0.839,2.865 0,0 -0.254,1.29 -0.778,1.995 l -0.278,0 c -0.612,-0.931 -0.785,-1.999 -0.785,-1.999 0,0 -0.85,-0.568 -0.858,-2.861 0,0 -0.075,-0.14 -0.149,-0.369 l -0.001,0.071 c 0.009,0.065 -0.108,0.298 -0.108,0.298 -0.028,0.488 -0.008,2.068 -0.838,2.865 0,0 -0.287,1.451 -0.81,2.156 l -0.278,0 c -0.613,-0.931 -0.754,-2.16 -0.754,-2.16 0,0 -0.666,-0.432 -0.801,-2.163 l -0.002,5.732 44.732,0 z m -45.671,0.994 0,-46.024 c 5.197,2.249 9.335,0.902 9.335,0.902 4.703,-1.457 6.481,-1.363 9.363,-0.462 5.481,1.714 7.763,0.421 9.852,-0.174 2.905,-0.828 4.958,-0.456 9.441,0.78 0.626,0.117 3.37,0.961 8.625,-1.033 l 0.026,46.011 -46.642,0 z"
           style="fill:#2252ab;fill-opacity:1;fill-rule:nonzero;stroke:none"
           id="path148"
           inkscape:connector-curvature="0" /></g><path
         inkscape:connector-curvature="0"
         id="path150"
         style="fill:#2252ab;fill-opacity:1;fill-rule:nonzero;stroke:none"
         d="m 73.719,74.551 46.488,0 0,0.917 -46.488,0 0,-0.917 z" /><g
         id="g5761"><path
           d="m 77.0999,80.285 -0.153,1.049 c -0.003,0.004 -0.011,0.057 -0.022,0.158 -0.008,0.085 -0.047,0.423 -0.119,1.014 -0.008,0.066 -0.017,0.156 -0.028,0.271 -0.012,0.114 -0.027,0.259 -0.045,0.434 l -0.074,0.851 c -0.008,-0.082 -0.018,-0.173 -0.031,-0.274 -0.013,-0.101 -0.028,-0.212 -0.043,-0.332 -0.026,-0.241 -0.045,-0.408 -0.056,-0.502 -0.011,-0.093 -0.019,-0.149 -0.023,-0.169 l -0.164,-1.09 -0.237,-1.41 0.995,0 z m 2.889,-3.036 -2.437,0 -0.175,1.142 -1.589,0 -0.192,-1.142 -2.437,0 2.091,8.596 c 0,0 0.428,0.164 1.094,0.319 1.264,0.295 1.59,0.307 1.59,0.307 l 2.055,-9.222 z"
           style="fill:#2252ab;fill-opacity:1;fill-rule:nonzero;stroke:none"
           id="path152"
           inkscape:connector-curvature="0" /><path
           d="m 82.3445,81.0851 0.123,0 c 0.21,0 0.385,0.083 0.525,0.248 0.14,0.166 0.21,0.376 0.21,0.632 0,0.52 -0.264,0.781 -0.792,0.781 l -0.066,0 0,-1.661 z m 2.981,-3.84 -1.974,0 -0.902,2.482 c -0.009,0.042 -0.024,0.097 -0.046,0.167 -0.022,0.069 -0.049,0.152 -0.081,0.248 l 0.013,-0.461 0,-2.436 -1.817,0 0,6.967 1.87,0 c 0.823,0 1.439,-0.167 1.847,-0.501 0.52,-0.427 0.78,-1.034 0.78,-1.823 0,-0.842 -0.349,-1.424 -1.047,-1.746 l 1.357,-2.897 z"
           style="fill:#2252ab;fill-opacity:1;fill-rule:nonzero;stroke:none"
           id="path154"
           inkscape:connector-curvature="0" /><path
           d="m 88.1805,81.2745 2.548,0 0,-0.28 c 0,-1.303 -0.194,-2.24 -0.582,-2.813 -0.423,-0.625 -1.05,-0.937 -1.878,-0.937 -0.815,0 -1.454,0.305 -1.918,0.915 -0.461,0.616 -0.692,1.461 -0.692,2.536 0,1.09 0.232,1.948 0.696,2.576 0.464,0.627 1.099,0.941 1.905,0.941 1.068,0 1.843,-0.572 2.325,-1.715 l -1.769,-0.668 c -0.027,0.22 -0.087,0.393 -0.182,0.521 -0.095,0.128 -0.214,0.192 -0.357,0.192 -0.502,0 -0.753,-0.668 -0.753,-2.005 0,-0.568 0.056,-0.981 0.167,-1.238 0.111,-0.257 0.287,-0.385 0.529,-0.385 0.097,0 0.184,0.021 0.263,0.063 0.079,0.043 0.145,0.103 0.199,0.18 0.054,0.077 0.097,0.171 0.127,0.281 0.031,0.111 0.046,0.234 0.046,0.369 l -0.674,0 0,1.467 z"
           style="fill:#2252ab;fill-opacity:1;fill-rule:nonzero;stroke:none"
           id="path156"
           inkscape:connector-curvature="0" /><path
           d="m 91.5078,77.2445 0,6.968 3.393,0 0,-1.67 -1.567,0 0,-0.889 1.405,0 0,-1.67 -1.405,0 0,-1.069 1.567,0 0,-1.67 -3.393,0 z"
           style="fill:#2252ab;fill-opacity:1;fill-rule:nonzero;stroke:none"
           id="path158"
           inkscape:connector-curvature="0" /><path
           d="m 95.6801,77.2445 0,6.968 1.742,0 0.916,-2.446 c 0.049,-0.144 0.106,-0.31 0.168,-0.496 0.063,-0.187 0.132,-0.402 0.208,-0.646 l 0.188,-0.614 c -0.067,0.605 -0.118,1.122 -0.153,1.553 -0.035,0.43 -0.053,0.791 -0.053,1.083 l 0,1.566 1.761,0 0,-6.968 -1.761,0 -0.974,2.563 c -0.102,0.274 -0.194,0.53 -0.277,0.77 -0.081,0.239 -0.153,0.467 -0.215,0.683 0.073,-0.49 0.126,-0.917 0.159,-1.281 0.034,-0.364 0.051,-0.683 0.051,-0.957 l 0,-1.778 -1.76,0 z"
           style="fill:#2252ab;fill-opacity:1;fill-rule:nonzero;stroke:none"
           id="path160"
           inkscape:connector-curvature="0" /><path
           d="m 103.7447,77.2445 -1.826,0 0,5.298 -1.007,0 0,1.67 3.879,0 0,-1.67 -1.046,0 0,-5.298 z"
           style="fill:#2252ab;fill-opacity:1;fill-rule:nonzero;stroke:none"
           id="path162"
           inkscape:connector-curvature="0" /><path
           d="m 105.2638,77.2445 0,6.968 3.393,0 0,-1.67 -1.568,0 0,-0.889 1.406,0 0,-1.67 -1.406,0 0,-1.069 1.568,0 0,-1.67 -3.393,0 z"
           style="fill:#2252ab;fill-opacity:1;fill-rule:nonzero;stroke:none"
           id="path164"
           inkscape:connector-curvature="0" /><path
           d="m 112.1943,84.2124 1.825,0 0,-4.843 c 0,-0.405 -0.062,-0.734 -0.188,-0.985 -0.122,-0.263 -0.327,-0.501 -0.612,-0.714 -0.386,-0.284 -0.854,-0.426 -1.406,-0.426 -0.625,0 -1.148,0.157 -1.572,0.47 -0.537,0.4 -0.805,1.038 -0.805,1.916 l 0,4.582 1.826,0 0,-4.468 c 0,-0.302 0.035,-0.516 0.107,-0.642 0.071,-0.125 0.192,-0.188 0.361,-0.188 0.175,0 0.296,0.058 0.363,0.175 0.067,0.122 0.101,0.339 0.101,0.65 l 0,4.473 z"
           style="fill:#2252ab;fill-opacity:1;fill-rule:nonzero;stroke:none"
           id="path166"
           inkscape:connector-curvature="0" /><path
           d="m 114.955,77.245 1.826,0 0,6.968 -1.826,0 0,-6.968 z"
           style="fill:#2252ab;fill-opacity:1;fill-rule:nonzero;stroke:none"
           id="path168"
           inkscape:connector-curvature="0" /><path
           d="m 120.9329,77.2445 -3.196,0 0,6.968 1.826,0 0,-5.298 1.37,0 0,-1.67 z"
           style="fill:#2252ab;fill-opacity:1;fill-rule:nonzero;stroke:none"
           id="path170"
           inkscape:connector-curvature="0" /><path
           d="m 116.8716,85.772 c 0,-0.27 -0.099,-0.5 -0.295,-0.692 -0.192,-0.192 -0.426,-0.288 -0.702,-0.288 -0.274,0 -0.513,0.097 -0.715,0.292 -0.197,0.198 -0.296,0.437 -0.296,0.718 0,0.275 0.097,0.51 0.291,0.705 0.194,0.195 0.428,0.293 0.703,0.293 0.282,0 0.522,-0.101 0.719,-0.302 0.196,-0.197 0.295,-0.439 0.295,-0.726"
           style="fill:#2252ab;fill-opacity:1;fill-rule:nonzero;stroke:none"
           id="path172"
           inkscape:connector-curvature="0" /></g></g></g></svg>