<svg xmlns="http://www.w3.org/2000/svg" viewBox="0 0 630.27 209.65"><g id="Calque_3" data-name="Calque 3"><path d="M53.82,59.18h0l.17-.11s0,0,0,0l-.16.13" style="fill:#2a3473"/><path d="M61.91,56.47s0,0,0,.05,0,0,0-.05" style="fill:#2a3473"/></g><g id="Calque_2" data-name="Calque 2"><path d="M261.54,86.79c0-6.41,5-11.05,14-12.57l13.76-2.28V69.75c0-5.23-3.88-8.44-9.37-8.44a12.65,12.65,0,0,0-10.71,5.57l-6.5-5c3.8-5.06,9.87-8.27,17.47-8.27,11.47,0,17.8,6.75,17.8,16.12V97.84H289.3V93a18,18,0,0,1-13.59,6.08c-8.43,0-14.17-4.81-14.17-12.32M277.32,92a13.65,13.65,0,0,0,12-6.58V78.1L277.82,80c-5.31.93-7.51,3.21-7.51,6.41s2.62,5.57,7,5.57" style="fill:#293e86"/><path d="M302.71,55.32h8.69v4.13a17.77,17.77,0,0,1,13.5-5.82c9.37,0,16.54,6.33,16.54,18.65V97.84h-8.78V72.62c0-6.75-3.71-10.81-9.78-10.81-5.83,0-9.29,3.63-11.48,7.34V97.84h-8.69Z" style="fill:#293e86"/><path d="M296.71,136.68l7,5.36c-4,5.36-10.37,8.81-18.4,8.81-14.61,0-23.77-10.8-23.77-23.5s9.16-23.51,23.77-23.51c7.95,0,14.43,3.46,18.4,8.82l-7,5.36a13.79,13.79,0,0,0-11.4-5.8c-8.39,0-14.44,6.57-14.44,15.13s6.05,15.12,14.52,15.12a13.76,13.76,0,0,0,11.32-5.79" style="fill:#293e86"/><path d="M317.45,114.49H308v-7.84h9.44V96h8.77v10.64h15.22v7.84H326.22V134.4c0,5.74,3,7.6,7.77,7.6a24.76,24.76,0,0,0,7.45-.93v7.67a25.83,25.83,0,0,1-8.81,1.27c-9.95,0-15.18-5.23-15.18-15.61Z" style="fill:#293e86"/><path d="M347,47.79v5.84h8.14V45.44a5.63,5.63,0,0,0-5.26-5.61l-8.46-.55v8.15Z" style="fill:#293e86"/><path d="M256,47.79l5.58-.36V39.28l-8.46.55a5.63,5.63,0,0,0-5.26,5.61v8.19H256Z" style="fill:#293e86"/><path d="M256,156.69v-5.84h-8.14v8.2a5.64,5.64,0,0,0,5.26,5.61l8.46.55v-8.15Z" style="fill:#293e86"/><path d="M354.53,164.45l-35.33.76v9.88l38.07-.94a7.64,7.64,0,0,0,7.12-7.61V128.8h-9.86Z" style="fill:#b13b79"/><path d="M74.09,59.3c.24-.24.48-.49.71-.75h0a14.32,14.32,0,0,1,1.39-1.42,4.49,4.49,0,0,1,.46-.36s0-.13.08-.17c-.21.08-.33.25-.54.33,0,0-.09,0,0-.08l.45-.33h0s0-.05,0-.09a1.75,1.75,0,0,0-1.34.63c-.08,0-.16,0-.2,0-.63.21-1.09.75-1.72,1v-.08c-.25.08-.49.23-.75.29a4.62,4.62,0,0,1-1,0,13.46,13.46,0,0,0-1.52.27h0a3.55,3.55,0,0,0-.78.32h0L69,59a1,1,0,0,1-.29.25,4,4,0,0,0-.69.55l-.07,0-.67.64a.17.17,0,0,1-.13,0h0l0,0,.11-.17.12-.2.18-.25a.06.06,0,0,0,0-.06l-.06,0a4,4,0,0,1,.7-.52h0s-.07,0,0,0l.07-.11s0,0,0,0l0,0a1.37,1.37,0,0,0-.2.13c-.1.09-.18.28-.33.28h-.06l0,0h0l0,0,0,0,0,0,0,0,0,0,0-.09,0,0,0-.07a.05.05,0,0,0,0-.08,1,1,0,0,1,.29-.25h0c.16-.08.32-.18.48-.27l.07-.06a2.72,2.72,0,0,0-.66.33s-.06,0-.07,0,0,0-.11,0,0,0,0,0,.17-.12.25-.21.09,0,.09,0c1.33-1,3.17-.79,4.72-1.33l.37-.25c.21-.09.38-.3.63-.42a1.86,1.86,0,0,0,.71-1,.14.14,0,0,0,0-.08,6.36,6.36,0,0,1-1.84,1.37,7.74,7.74,0,0,1-2.76.5c.05-.08.13-.08.21-.08s.09-.17.17-.25h.13s0-.08.08-.08.21,0,.17,0c-.13-.17-.38.12-.59,0,.08-.09,0-.21.13-.26h.16a.27.27,0,0,1,.09-.16c.62-.38,1.21-.67,1.79-1-.12,0-.21.12-.33,0,.08,0,0-.13.08-.13.46-.12.84-.37,1.3-.54-.17,0-.3.12-.46,0,.08,0,.12-.13.25-.13v-.12s0,0,.08,0-.08,0-.08,0,.17,0,.25-.12-.13,0-.13,0a.83.83,0,0,1,.55-.25c0-.09-.17,0-.17-.09s0,0,.08,0h-.08c-.08,0,0-.12,0-.17a2.75,2.75,0,0,0,.37-1s-.08,0-.08,0a3.39,3.39,0,0,1-1.71.79H72a.81.81,0,0,1-.71,0,3,3,0,0,1-.42-.33,4.53,4.53,0,0,0-1-.5,9.31,9.31,0,0,0-3.22-.46A7.39,7.39,0,0,1,68,51.63a6.26,6.26,0,0,1,2.13-.42,1.41,1.41,0,0,0-.41,0,7.22,7.22,0,0,0-1.8.25c-.42.09-.79.25-1.21.34-.25.08-.38.33-.67.29V52a2.4,2.4,0,0,1,1.59-1,7.81,7.81,0,0,1,2.21.08,10.09,10.09,0,0,1,1.59.3c.21,0,.25.33.42.37s.5,0,.75.17c0-.09,0-.17,0-.25s.37,0,.54,0c.33-.21-.29-.59-.46-.88a.14.14,0,0,1,0-.08,5.32,5.32,0,0,0,1,.83c.21.08.71.21.63,0a6.61,6.61,0,0,0-1-1.25V50c-.08,0-.08,0-.12-.08v-.17c-.17-.09-.13-.25-.21-.38s0-.5-.13-.75a6.09,6.09,0,0,1-.17-.71c-.12-.71-.29-1.34-.37-2s.46-1.42.83-2.13a3.66,3.66,0,0,1,1.17-1.34,3.71,3.71,0,0,1,.8-1.34,3.48,3.48,0,0,1,1.29-.83c.58-.26,1.11-.43,1.11-.43H48.77V61.91H69.26a18.17,18.17,0,0,1,2.7-1.4,10.38,10.38,0,0,0,2.13-1.21m-6.42-3c-.09,0-.25,0-.21,0s.33-.21.5-.3.21-.12.29-.08.21.08.29.17c-.25.25-.58.12-.87.25m-6.39-.92s-.05,0-.05-.08a12.18,12.18,0,0,0,1.34-2.13A6.11,6.11,0,0,0,64,52a8,8,0,0,1,2.34-1.84,1.58,1.58,0,0,1,1.09,0c-.13.17-.34.12-.51.25a.15.15,0,0,1-.12,0,.17.17,0,0,0,0-.13c-.42.46-1,.67-1.33,1.21s-.42,1-1,1.09c-.16,0,0-.12,0-.08a14,14,0,0,0-3.21,2.88m3.46-2.76c0,.09-.08.09-.12.17a.4.4,0,0,1-.17.17s-.08,0-.08,0a.5.5,0,0,1,.33-.37s0,0,0,.08m1.94,6.26a.29.29,0,0,1-.1.12s.09,0,.06.07a1.21,1.21,0,0,1-.32.22h-.07l-.15.14s-.28,0-.21-.05.2-.19.31-.29a1.37,1.37,0,0,0,.17-.17l.09-.09s.26,0,.22,0m-.75-.35h0l-.47.32c-.18.1-.37.18-.55.27h0a.06.06,0,0,0-.07,0,2.22,2.22,0,0,0-.42.32l-.06.06h0l-.06.06h0l-.09.09s0,0-.06.06-.1,0-.09,0h0l-.07,0-.07,0h-.06l-.15.13a1.48,1.48,0,0,0-.24.26h0l0,0v0h0l0,0h0l0,0,0,0v0l0-.07h0v0l.13-.15h0l0-.06.07-.09,0,0,.14-.18h0l0,0a.41.41,0,0,0,.05-.09.22.22,0,0,0,0-.08h0v0a.3.3,0,0,0,0-.1h0v0s0,0,0,0h0s0,0,0-.06a0,0,0,0,0,0,0,1.24,1.24,0,0,1,.17-.23h0c-.06,0-.1.1-.16.14s-.13,0-.07-.07l.09-.08h0a2.08,2.08,0,0,1,.21-.21l.13-.1h0l.09-.11h0c.4-.39,1.08-.37,1.6-.62.21-.08.46,0,.67,0a.66.66,0,0,1,.38.08c-.38.21-.72.44-1.07.65m.86-2.9s.12,0,.17-.08h-.34s0-.05,0-.09c-.21,0-.46.13-.67.17s-.54.29-.87.38-.84.54-1.34.71c0,0,0,0,0-.09s.21-.17.29-.29,0-.08,0-.08a7.41,7.41,0,0,1,1.21-1.09v-.13c.12-.16.33-.25.42-.45a.74.74,0,0,1,.41-.38s-.12,0-.12-.13c-.17,0-.33.09-.5,0a.63.63,0,0,1,.26-.15.1.1,0,0,1-.09-.06c0-.08.08-.17.2-.21a1.09,1.09,0,0,0,.51-.16c-.3,0-.63.08-.92-.09a2.23,2.23,0,0,1,1-1.25s.13,0,.13,0a.41.41,0,0,1-.34.42,4,4,0,0,1,1,.25c0,.08-.12,0-.16,0,.21.13.46,0,.66.21-.12.13-.25,0-.37,0A11,11,0,0,1,71,54.6a12,12,0,0,1-2.88.87,1,1,0,0,1-.34,0s0,.13,0,.13a.72.72,0,0,0-.42.08c-.16.08-.42.12-.54,0" style="fill:#2b2e81"/><path d="M109.74,39.8H86l.22.11.6.32a1.93,1.93,0,0,1,.8.67c.08.12.21.37.12.54s-.12.54-.33.63a1.62,1.62,0,0,1-.88.08,2.26,2.26,0,0,1-.5-.08,3.41,3.41,0,0,1,1.63,1.12c0,.09.21.13.38.13s0,.08,0,.12-.17.13-.13.25h.13c.21-.08.17-.5.46-.37a.48.48,0,0,1,.17.63,4.58,4.58,0,0,1-.51.41.39.39,0,0,0,0,.3,1.14,1.14,0,0,1,.21.5c.13.29.17.62.3.91A6.18,6.18,0,0,1,89,48c0,.34-.17.63,0,1a3.21,3.21,0,0,0,.46.88,6.54,6.54,0,0,1,.45.67c.26.42.71.84.51,1.34-.13.29-.59.25-.88.41s0,.55.08.76c.21.37-.25.62-.54.75.08.12.25.08.29.17s.25.33.13.54-.67.37-.42.75a1.1,1.1,0,0,1,0,.92,1.07,1.07,0,0,1-.75.63,1.81,1.81,0,0,1-.8,0,.63.63,0,0,0-.25-.09A19.45,19.45,0,0,0,85,56.39a2,2,0,0,0-.58.17A3.73,3.73,0,0,0,84,57h0a.94.94,0,0,0-.1.1l0,.07,0,0a2.56,2.56,0,0,0-.33.48l0,0,0,.06a3.92,3.92,0,0,0-.32.77,2.51,2.51,0,0,0,0,2c0,.06,1.38.47,2.3.88a8.13,8.13,0,0,1,1,.5h23.34Z" style="fill:#df1f26"/><path d="M87.38,47.87c.17,0,.42,0,.42.12-.09.34-.59.42-.84.75h-.12c-.13.09-.09.3-.21.3a.56.56,0,0,0-.38,0,.75.75,0,0,0,.63.25.18.18,0,0,1,.12.17.12.12,0,0,0,.09,0s.08,0,.08,0v.16c-.12.17-.33.09-.5.13a2,2,0,0,0,1,0c.25-.09,0-.5.17-.71-.09,0,0-.13-.09-.13.09-.08.17-.21.25-.25a.32.32,0,0,0,.26-.12c0-.09-.17-.13-.13-.21.25-.17.46-.42.38-.67s-.38-.13-.59-.21a1.45,1.45,0,0,0-.71,0,3.35,3.35,0,0,0-.62.17,2.66,2.66,0,0,0-.8.42,5.17,5.17,0,0,1,.92-.25,2.41,2.41,0,0,1,.71,0" style="fill:gray"/><path d="M48.63,73.48h5.24c3.76,0,6.09,1.94,6.09,5.12A4.58,4.58,0,0,1,57.19,83l5.36,7.59H58.47l-4.58-6.93H52.11v6.93H48.63Zm3.48,2.89V80.8h2a2.22,2.22,0,1,0,0-4.43Z"/><path d="M65,73.48H75v2.89H68.47v4.06H74v2.89H68.47v4.4H75v2.89H65ZM68.37,72l2.77-3.31h3.57L71.53,72Z"/><path d="M79.26,73.48h5.65c3.77,0,6.06,1.94,6.06,5.12s-2.29,5.08-6.06,5.08H82.73v6.93H79.26Zm3.47,2.89V80.8h2.33a2.22,2.22,0,1,0,0-4.43Z"/><path d="M104.18,73.48h3.48V83.9c0,4.5-2.65,7.19-7,7.19s-6.92-2.69-6.92-7.19V73.48h3.47V84.2c0,2.3,1.3,3.64,3.47,3.64s3.45-1.34,3.45-3.64Z"/><path d="M112.21,73.48h5c3.58,0,5.75,1.77,5.75,4.65a3.91,3.91,0,0,1-1.83,3.38A4.34,4.34,0,0,1,124,85.57c0,3.13-2.42,5-6.36,5h-5.4Zm3.47,2.89v3.86h1.64a1.94,1.94,0,1,0,0-3.86Zm0,6.75v4.6h2.13c1.61,0,2.59-.86,2.59-2.3s-1-2.3-2.59-2.3Z"/><path d="M127.79,73.48h3.47v14h6.51v3.16h-10Z"/><path d="M141.07,73.48h3.47V90.61h-3.47Z"/><path d="M167.54,91.8a3.49,3.49,0,0,0,1.22-.19v2.93a4.51,4.51,0,0,1-1.81.32,8.07,8.07,0,0,1-5.36-2.25l-2-1.81a9.06,9.06,0,1,1,6.73-8.75,9.06,9.06,0,0,1-3.38,7.14l1,1A5.34,5.34,0,0,0,167.54,91.8Zm-4.82-9.75a5.52,5.52,0,1,0-5.51,5.79A5.51,5.51,0,0,0,162.72,82.05Z"/><path d="M179.94,73.48h3.47V83.9c0,4.5-2.64,7.19-6.95,7.19s-6.92-2.69-6.92-7.19V73.48H173V84.2c0,2.3,1.29,3.64,3.47,3.64s3.45-1.34,3.45-3.64Z"/><path d="M188,73.48h10v2.89h-6.51v4.06H197v2.89h-5.53v4.4h6.51v2.89H188Z"/><path d="M48.63,99.05h10v2.88h-6.5V106h5.52v2.89H52.11v7.29H48.63Z"/><path d="M61.92,99.05h5.23c3.77,0,6.09,1.93,6.09,5.11a4.57,4.57,0,0,1-2.76,4.42l5.35,7.59H71.75l-4.58-6.92H65.39v6.92H61.92Zm3.47,2.88v4.43h2a2.22,2.22,0,1,0,0-4.43Z"/><path d="M83.34,99.05h4.55l6.48,17.12H90.68L89,111.71H82.19l-1.64,4.46H76.86ZM88,108.76l-2.35-6.44-2.35,6.44Z"/><path d="M97.26,99.05h4.45l7.66,12.37V99.05h3.47v17.12h-4.45l-7.66-12.38v12.38H97.26Z"/><path d="M130,111.05l2.74,2.11a8.52,8.52,0,0,1-5.87,3.4l-2.13,3.55h-3.08l2.15-3.6A9.07,9.07,0,1,1,132.73,102L130,104.16a5.35,5.35,0,0,0-4.48-2.35,5.8,5.8,0,0,0,0,11.59A5.35,5.35,0,0,0,130,111.05Z"/><path d="M140.21,99.05h4.55l6.48,17.12h-3.69l-1.64-4.46h-6.85l-1.63,4.46h-3.7Zm4.63,9.71-2.35-6.44-2.35,6.44Z"/><path d="M154.13,99.05h3.47v17.12h-3.47Z"/><path d="M163.62,111.47a4.94,4.94,0,0,0,3.79,2.1c1.37,0,2.2-.73,2.2-1.95,0-3.16-7.77-2.3-7.77-8.1,0-2.71,2.25-5,5.52-5a7.63,7.63,0,0,1,6,2.88l-2.55,2.3c-1-1.29-2.12-2.15-3.42-2.15a1.85,1.85,0,0,0-2,1.81c0,3.11,7.78,2.23,7.78,8.1,0,3.22-2.57,5.16-5.7,5.16a7.66,7.66,0,0,1-6.34-2.87Z"/><path d="M177,99.05h10v2.88H180.5V106H186v2.89H180.5v4.4H187v2.89H177Z"/><path d="M112.38,168.77c.53,0,1,.4.74,1.42l-2.46.57c.43-1.15,1.14-2,1.72-2m1.36,4h-.49a3,3,0,0,1-1.93,1.3c-.68,0-1-.4-1-1.3a5.44,5.44,0,0,1,.11-1.09l4-1.31c.78-1.83-.16-2.63-1.24-2.63-1.88,0-4,3.14-4,5.89,0,1.23.59,1.9,1.51,1.9,1.07,0,2.19-1,3.11-2.76M113,167l2.79-2.61v-.3h-1.5L112.52,167Zm-8.57,1.83h1.32l-2.09,5.72a.66.66,0,0,0,.57,1,4.84,4.84,0,0,0,3.78-2.78h-.37a5.15,5.15,0,0,1-2.42,1.46l1.92-5.37h2l.25-.82h-1.91l.73-2.06h-.76L106,168l-1.62.23Zm-1.78-.27a.59.59,0,0,0-.47-.83,3.69,3.69,0,0,0-3,2.48h.37A2.94,2.94,0,0,1,101,169l-2.19,5.7a.57.57,0,0,0,.47.83,3.6,3.6,0,0,0,2.91-2.48h-.37a2.9,2.9,0,0,1-1.59,1.22Zm.41-2.87a.94.94,0,0,0,.94-.94.95.95,0,1,0-1.89,0,.93.93,0,0,0,1,.94m-12.63,8.77c-.28.65,0,1.06.65,1.06a.63.63,0,0,0,.71-.51l1.52-4A5.46,5.46,0,0,1,96,169.18c.42,0,.36.35.09.86l-2.34,4.49a.66.66,0,0,0,.58,1,3.69,3.69,0,0,0,3-2.48H97a2.94,2.94,0,0,1-1.59,1.22l2-4.05a3.27,3.27,0,0,0,.39-1.39,1,1,0,0,0-1.06-1.09c-1,0-2,1.11-3.18,2.49v-1.06c0-.76-.24-1.43-.93-1.43-.43,0-.85.37-1.23.9v.14c.74,0,1.07,1.08.54,2.25Zm0-5c.28-.94.13-1.75-.58-1.75s-1.06.64-1.92,2.49v-1.06c0-.76-.25-1.43-.93-1.43s-1.54,1.24-2.1,2.48h.38c.38-.56.74-.89,1-.89s.53.53,0,1.7l-1.55,3.44c-.29.65,0,1.06.64,1.06A.64.64,0,0,0,86,175l1.52-4c.43-.53.82-1,1.3-1.5Zm-8.79-.69c.53,0,1,.4.74,1.42l-2.46.57c.43-1.15,1.14-2,1.72-2m1.36,4h-.49A3,3,0,0,1,80.5,174c-.68,0-1-.4-1-1.3a5.44,5.44,0,0,1,.11-1.09l4-1.31c.78-1.83-.16-2.63-1.24-2.63-1.88,0-4,3.14-4,5.89,0,1.23.59,1.9,1.51,1.9s2.19-1,3.11-2.76m-9.36-3.93h1.32l-2.09,5.72a.66.66,0,0,0,.57,1,4.84,4.84,0,0,0,3.78-2.78h-.37a5.15,5.15,0,0,1-2.42,1.46l1.92-5.37h2l.25-.82H76.57l.73-2.06h-.76L75.18,168l-1.62.23Zm-7.23,4.46c0-1.77,2-4.16,3.06-4.16a2.36,2.36,0,0,1,.67.09l-1.14,3.05c-.66.8-1.68,1.78-2.15,1.78-.27,0-.44-.23-.44-.76m6-5.89-.6,0-.68.66h-.14c-3.27,0-6.09,3.67-6.09,6.34A1.08,1.08,0,0,0,66,175.5c.85,0,1.68-1.2,2.61-2.49l0,.46c-.12,1.32.29,2,1,2s1.54-1.24,2.1-2.48h-.38c-.38.56-.74.89-1,.89s-.51-.54,0-1.7Zm-7,2.08c.28-.94.13-1.75-.58-1.75s-1.06.64-1.92,2.49v-1.06c0-.76-.25-1.43-.93-1.43s-1.54,1.24-2.1,2.48h.38c.38-.56.74-.89,1-.89s.53.53,0,1.7l-1.55,3.44c-.29.65,0,1.06.64,1.06a.64.64,0,0,0,.72-.51l1.52-4c.43-.53.82-1,1.3-1.5Zm-11,5.76.14-.45c-1.9-.36-2.15-.36-1.39-2.43L54,170.2h2.1c1,0,1,.39.82,1.42h.54l1.26-3.45h-.54c-.47.81-.85,1.41-1.88,1.41H54.17l1.11-3c.34-1,.54-1.16,1.83-1.16H58c1.33,0,1.49.36,1.49,1.71h.53l.44-2.35H52.58l-.14.44c1.53.32,1.68.46,1,2.44l-1.72,4.7c-.72,2-1,2.12-2.78,2.43l-.13.45Z"/><path d="M93.19,150.86c.53,0,1,.4.75,1.42l-2.47.57c.43-1.15,1.15-2,1.72-2m1.36,4h-.49a2.93,2.93,0,0,1-1.93,1.3c-.67,0-1-.4-1-1.3a5.43,5.43,0,0,1,.12-1.09l4-1.31C96,150.6,95,149.8,94,149.8c-1.88,0-4,3.13-4,5.89,0,1.23.59,1.9,1.5,1.9,1.08,0,2.19-1,3.11-2.76m-.79-5.76,2.8-2.61v-.3H95.05l-1.72,2.91ZM85.2,150.9h1.31l-2.09,5.72a.66.66,0,0,0,.57,1,4.87,4.87,0,0,0,3.79-2.78h-.37A5.14,5.14,0,0,1,86,156.27l1.92-5.37h2l.24-.82H88.2l.74-2.06h-.76l-1.37,2.06-1.61.23Zm-1.78-.27a.59.59,0,0,0-.47-.83,3.7,3.7,0,0,0-3.06,2.48h.38a2.9,2.9,0,0,1,1.59-1.22l-2.19,5.7a.57.57,0,0,0,.47.83,3.61,3.61,0,0,0,2.91-2.48h-.38a2.9,2.9,0,0,1-1.59,1.22Zm.4-2.87a.94.94,0,0,0,1-.94,1,1,0,1,0-1.9,0,.93.93,0,0,0,.95.94m-7.62,8.57,4-10.47-.12-.16-2.51.29v.3l.49.37c.44.34.3.67-.1,1.73l-3.13,8.23a.66.66,0,0,0,.58,1,3.51,3.51,0,0,0,2.9-2.48h-.37a3.25,3.25,0,0,1-1.73,1.22m-7.6-1c0-1.77,2-4.16,3.07-4.16a2.36,2.36,0,0,1,.67.09l-1.14,3.05c-.66.8-1.68,1.78-2.15,1.78-.27,0-.45-.23-.45-.76m6-5.89-.61-.05-.67.66h-.14c-3.27,0-6.09,3.67-6.09,6.34a1.08,1.08,0,0,0,1.17,1.17c.85,0,1.68-1.2,2.61-2.49l0,.46c-.12,1.31.28,2,1,2s1.54-1.24,2.09-2.48h-.37c-.39.56-.74.89-1,.89s-.52-.54,0-1.7ZM60.05,159c0-.76.73-1.23,1.78-1.65a11.83,11.83,0,0,0,1.54.59c1.09.36,1.51.5,1.51.83,0,.7-1.19,1.23-2.81,1.23-1.36,0-2-.28-2-1m3-4.63c-.48,0-.66-.4-.66-.86,0-1.27.68-3.15,1.76-3.15.47,0,.66.4.66.86,0,1.28-.69,3.15-1.76,3.15m3.1,3.93c0-.92-.81-1.25-2.14-1.65-1.15-.34-1.67-.44-1.67-.81a1.18,1.18,0,0,1,.73-.92,3.34,3.34,0,0,0,3.1-3.21,2,2,0,0,0-.16-.79h1.59l.25-.82H65.29a2,2,0,0,0-1-.28A3.31,3.31,0,0,0,61,153a1.84,1.84,0,0,0,1.51,1.91c-.93.42-1.44.9-1.44,1.48a.91.91,0,0,0,.38.77c-2.15.63-3,1.35-3,2.36s1.3,1.41,2.85,1.41c2.62,0,4.81-1.42,4.81-2.61m-10-6.13c.94,0,1,.38.82,1.42h.54l1.26-3.46h-.54c-.48.82-.85,1.42-1.88,1.42H54.23l1.05-2.88c.34-1,.54-1.15,1.83-1.15H58c1.33,0,1.49.36,1.49,1.7h.53l.44-2.35H52.58l-.14.44c1.53.31,1.68.46,1,2.44l-1.72,4.69c-.72,2-1,2.13-2.78,2.44l-.13.45h8.8l1.58-2.5h-.6a5.78,5.78,0,0,1-4,1.85c-2.34,0-2.12-.1-1.35-2.24l.83-2.27Zm1.15-6,2.79-1.92v-.3H58.36l-1.55,2.22Z"/><path d="M92.26,133c.53,0,1,.4.74,1.42l-2.46.57c.43-1.15,1.15-2,1.72-2m1.36,4h-.49a2.93,2.93,0,0,1-1.93,1.3c-.67,0-1-.4-1-1.3a5.43,5.43,0,0,1,.12-1.09l4-1.31c.77-1.83-.16-2.63-1.25-2.63-1.88,0-4,3.13-4,5.89,0,1.23.58,1.9,1.5,1.9,1.08,0,2.19-1.05,3.11-2.76m-.79-5.76,2.8-2.61v-.3H94.12l-1.72,2.91ZM84.62,133h1l-2.09,5.72a.66.66,0,0,0,.57,1,4.84,4.84,0,0,0,3.78-2.78h-.37a5.15,5.15,0,0,1-2.42,1.46L87.06,133h2l.25-.82H87.36l.73-2.06h-.76L86,132.17l-1.35.23Zm-1,.64c.27-.93.13-1.74-.59-1.74s-1.06.64-1.92,2.49v-1.06c0-.76-.24-1.43-.93-1.43s-1.53,1.24-2.09,2.48h.37c.39-.56.75-.89,1-.89s.53.53,0,1.7l-1.54,3.44c-.29.65,0,1.06.64,1.06.39,0,.56-.1.72-.52l1.52-4c.43-.53.81-1,1.3-1.51Zm-8.8-.68c.53,0,1,.4.75,1.42l-2.47.57c.43-1.15,1.15-2,1.72-2m1.36,4h-.48a3,3,0,0,1-1.94,1.3c-.67,0-1-.4-1-1.3a5.44,5.44,0,0,1,.11-1.09l4-1.31c.77-1.83-.16-2.63-1.25-2.63-1.87,0-4,3.13-4,5.89,0,1.23.59,1.9,1.51,1.9,1.07,0,2.19-1.05,3.1-2.76m-9.72,1.6c-.39,0-1-.36-1-.67a7.52,7.52,0,0,1,.39-1.11l.64-1.7c.69-.82,1.74-1.69,2.32-1.69.36,0,.63.23.63.76,0,1.56-1.46,4.41-3,4.41m4.51-5c0-1.16-.43-1.59-1.23-1.59-1,0-1.95,1.06-2.9,2.35l2.4-6.29-.13-.16-2.51.29v.3l.49.37c.44.34.3.7-.1,1.73l-2.58,6.65a7.33,7.33,0,0,0-.42,1.22c0,.69.93,1.33,1.78,1.33,2,0,5.2-3.51,5.2-6.2m-7.8-.76a.59.59,0,0,0-.47-.83,3.69,3.69,0,0,0-3.05,2.48H60a2.89,2.89,0,0,1,1.59-1.22l-2.19,5.7a.57.57,0,0,0,.47.83,3.61,3.61,0,0,0,2.91-2.48H62.4a2.9,2.9,0,0,1-1.59,1.22Zm.41-2.87a.94.94,0,0,0,.94-.94.95.95,0,1,0-1.89,0,.93.93,0,0,0,.95.94m-5.78-.92H52.56l-.15.45c1.54.31,1.68.46,1,2.43l-1.69,4.7c-.71,2-1,2.12-2.78,2.44l-.13.44h7.94l1.72-3.06h-.6c-1,1.07-2.12,2.42-3.88,2.42-1.34,0-1.49-.23-.78-2.24l1.69-4.7c.7-2,1-2.12,2.78-2.43Z"/><rect y="48.65" width="48.63" height="29.55" style="fill:#fff"/><rect x="581.64" y="142.23" width="48.63" height="29.55" style="fill:none"/><rect x="198.18" y="48.71" width="48.63" height="29.44" style="fill:none"/><path d="M391.84,135.73a9.83,9.83,0,0,0,8.07-3.79l-4.66-3.53a4.07,4.07,0,0,1-3.38,1.72,4.26,4.26,0,0,1-4.36-4.62c0-2.78,1.81-4.62,4.25-4.62a4.07,4.07,0,0,1,3.49,1.73l4.66-3.53a9.84,9.84,0,0,0-8.07-3.8c-6.69,0-10.53,4.7-10.53,10.22S385.15,135.73,391.84,135.73Z" style="fill:#b13b79"/><rect x="403.6" y="116.04" width="5.97" height="18.94" style="fill:#b13b79"/><path d="M406.64,114a3.78,3.78,0,1,0-3.79-3.8A3.85,3.85,0,0,0,406.64,114Z" style="fill:#b13b79"/><path d="M422.53,127.62v-6.24h5.19V116h-5.19v-4.73h-6V116H413v5.34h3.53v6.24c0,4.66,2.14,7.74,7.29,7.74a9.35,9.35,0,0,0,3.95-.68v-5.15a7.78,7.78,0,0,1-2.86.42A2.1,2.1,0,0,1,422.53,127.62Z" style="fill:#b13b79"/><path d="M445.6,128.59a5.4,5.4,0,0,1-4.24,1.81c-2.26,0-3.91-.68-4.48-3.23h12.25a12.79,12.79,0,0,0,.38-3.16c0-5.15-3.53-8.72-8.91-8.72-6.42,0-9.84,4.74-9.84,10.22s3.68,10.22,10.63,10.22a10.29,10.29,0,0,0,8.42-3.79Zm-5.15-8.49a3.06,3.06,0,0,1,3.27,2.86h-6.8A3.31,3.31,0,0,1,440.45,120.1Z" style="fill:#b13b79"/><polygon points="448.53 106.8 442.15 106.8 438.28 113.04 443.95 113.04 448.53 106.8" style="fill:#b13b79"/><path d="M460.44,131c-1.69,0-3-1.13-4-2.45l-3.91,3.57a9.94,9.94,0,0,0,8,3.61c3.64,0,7.14-2.18,7.21-6.46,0-6.61-8.75-5.63-8.75-8.08,0-.64.49-1.16,1.54-1.16a4.83,4.83,0,0,1,3.38,2.06l3.91-3.49a9.58,9.58,0,0,0-7.29-3.31c-4.17,0-7.21,2.6-7.21,6.2,0,6.65,8.75,5.6,8.75,8.19C462.06,130.43,461.53,131,460.44,131Z" style="fill:#b13b79"/><path d="M391.91,167.3c-2.25,0-3.91-.68-4.47-3.24h12.25a12.71,12.71,0,0,0,.37-3.15c0-5.15-3.53-8.72-8.9-8.72-6.42,0-9.85,4.73-9.85,10.22S385,172.63,392,172.63a10.27,10.27,0,0,0,8.41-3.79l-4.2-3.35A5.44,5.44,0,0,1,391.91,167.3ZM391,157a3.07,3.07,0,0,1,3.27,2.86h-6.8A3.3,3.3,0,0,1,391,157Z" style="fill:#b13b79"/><polygon points="399.09 143.7 392.7 143.7 388.83 149.94 394.5 149.94 399.09 143.7" style="fill:#b13b79"/><path d="M418.33,154a7.44,7.44,0,0,0-5.23-1.77c-6,0-9.54,4.7-9.54,10.22s3.53,10.22,9.54,10.22a7.44,7.44,0,0,0,5.23-1.77v1h6V143.7h-6Zm0,10.89A5.21,5.21,0,0,1,414,167c-2.63,0-4.21-1.84-4.21-4.62s1.58-4.62,4.21-4.62a5.21,5.21,0,0,1,4.36,2.18Z" style="fill:#b13b79"/><path d="M442,163.65c0,2-1,3.38-3.16,3.38s-3.19-1.39-3.19-3.38V152.94h-6v10.37c0,5.68,3.27,9.32,9.17,9.32s9.2-3.64,9.2-9.32V152.94h-6Z" style="fill:#b13b79"/><path d="M462.55,157.79a4.07,4.07,0,0,1,3.49,1.73L470.7,156a9.86,9.86,0,0,0-8.08-3.8c-6.68,0-10.52,4.7-10.52,10.22s3.84,10.22,10.52,10.22a9.85,9.85,0,0,0,8.08-3.79L466,165.3a4.07,4.07,0,0,1-3.38,1.73,4.26,4.26,0,0,1-4.36-4.62C458.3,159.63,460.11,157.79,462.55,157.79Z" style="fill:#b13b79"/><path d="M481.82,152.19a9.73,9.73,0,0,0-8.15,3.83l4.36,3.31a4.22,4.22,0,0,1,3.61-2,2.77,2.77,0,0,1,3,2.52l-5.34.9c-4.13.67-6.35,2.89-6.35,5.78,0,3.69,2.67,5.9,6.5,5.9a7.45,7.45,0,0,0,5.19-2v1.43h5.93V159.93C490.61,155.8,487.83,152.19,481.82,152.19Zm2.86,13.6a4.4,4.4,0,0,1-3.87,2c-1.17,0-1.92-.6-1.92-1.58s.53-1.42,2.07-1.69l3.72-.64Z" style="fill:#b13b79"/><path d="M503.39,164.51v-6.23h5.18v-5.34h-5.18v-4.73h-6v4.73h-3.53v5.34h3.53v6.23c0,4.66,2.14,7.74,7.29,7.74a9.32,9.32,0,0,0,3.94-.67v-5.15a7.72,7.72,0,0,1-2.85.41A2.09,2.09,0,0,1,503.39,164.51Z" style="fill:#b13b79"/><path d="M516.16,143.32a3.78,3.78,0,1,0,3.72,3.76A3.83,3.83,0,0,0,516.16,143.32Z" style="fill:#b13b79"/><rect x="513.12" y="152.94" width="5.97" height="18.94" style="fill:#b13b79"/><polygon points="532.58 164.7 528.52 152.94 522.14 152.94 528.64 171.88 536.49 171.88 542.99 152.94 536.6 152.94 532.58 164.7" style="fill:#b13b79"/><path d="M555.32,167.3c-2.26,0-3.91-.68-4.47-3.24h12.24a12.63,12.63,0,0,0,.38-3.15c0-5.15-3.53-8.72-8.91-8.72-6.42,0-9.84,4.73-9.84,10.22s3.68,10.22,10.63,10.22a10.28,10.28,0,0,0,8.42-3.79l-4.21-3.35A5.4,5.4,0,0,1,555.32,167.3Zm-.9-10.3a3.05,3.05,0,0,1,3.26,2.86h-6.8A3.31,3.31,0,0,1,554.42,157Z" style="fill:#b13b79"/><path d="M572.94,158.09c0-.64.49-1.17,1.54-1.17,1.35,0,2.48,1,3.38,2.07l3.91-3.49a9.6,9.6,0,0,0-7.29-3.31c-4.17,0-7.22,2.59-7.22,6.2,0,6.65,8.76,5.6,8.76,8.19,0,.75-.53,1.32-1.62,1.32a5.19,5.19,0,0,1-4-2.45L566.51,169a9.93,9.93,0,0,0,8,3.61c3.64,0,7.14-2.18,7.21-6.46C581.69,159.56,572.94,160.53,572.94,158.09Z" style="fill:#b13b79"/></g></svg>